# xmcd
#
# Track frame offsets:
#	150
#	12970
#	28050
#	44395
#	58880
#	73197
#	84855
#	96628
#	108704
#	120129
#	135721
#	152452
#	177095
#	195753
#	211177
#	235009
#	250388
#	267101
#	278965
#	288318
# Disc length: 4008 seconds
# Revision: 1
# Processed by: cddbd v1.5.1PL0 Copyright (c) Steve Scherf et al.
#
# Submitted via: libkcddb 0.10
#
DISCID=150fa614
DTITLE=The Isaacs - Bluegrass Revisited
DYEAR=1900
DGENRE=
TTITLE0=Look Over The Beautiful Fields
TTITLE1=Wandering Boy
TTITLE2=Dreaming Of A Little Cabin
TTITLE3=Cry From The Cross
TTITLE4=A Man Without God
TTITLE5=The Sunny Side of Life
TTITLE6=In God's Hands
TTITLE7=Prophets Admiration
TTITLE8=Bring Your Vessels
TTITLE9=Are You Afraid To Die
TTITLE10=He Never Failed Me
TTITLE11=Is Not This The Land Of Beulah
TTITLE12=Wayfaring Stranger
TTITLE13=Thank You
TTITLE14=Medley
TTITLE15=Family Chain
TTITLE16=Paul's Ministry
TTITLE17=Evergreen Shore
TTITLE18=The Sun Will Never Set Again
TTITLE19=Why Are You Hungry?
EXTD=
EXTT0=
EXTT1=
EXTT2=
EXTT3=
EXTT4=
EXTT5=
EXTT6=
EXTT7=
EXTT8=
EXTT9=
EXTT10=
EXTT11=
EXTT12=
EXTT13=
EXTT14=
EXTT15=
EXTT16=
EXTT17=
EXTT18=
EXTT19=
PLAYORDER=
